<mxfile host="Electron" modified="2023-11-05T13:09:13.024Z" agent="Mozilla/5.0 (Windows NT 10.0; Win64; x64) AppleWebKit/537.36 (KHTML, like Gecko) draw.io/22.0.3 Chrome/114.0.5735.289 Electron/25.8.4 Safari/537.36" etag="2Eqz_ipWEJhh4o0t4cv3" version="22.0.3" type="device">
  <diagram name="Sayfa -1" id="_PvHEGYBJEPAHW9gNNoB">
    <mxGraphModel dx="1036" dy="606" grid="1" gridSize="10" guides="1" tooltips="1" connect="1" arrows="1" fold="1" page="1" pageScale="1" pageWidth="827" pageHeight="1169" math="0" shadow="0">
      <root>
        <mxCell id="0" />
        <mxCell id="1" parent="0" />
        <mxCell id="P8YTLVGRNUJ8Om8dEajW-2" style="edgeStyle=orthogonalEdgeStyle;rounded=0;orthogonalLoop=1;jettySize=auto;html=1;" edge="1" parent="1" source="P8YTLVGRNUJ8Om8dEajW-1" target="P8YTLVGRNUJ8Om8dEajW-3">
          <mxGeometry relative="1" as="geometry">
            <mxPoint x="400" y="160" as="targetPoint" />
          </mxGeometry>
        </mxCell>
        <mxCell id="P8YTLVGRNUJ8Om8dEajW-1" value="start" style="ellipse;whiteSpace=wrap;html=1;" vertex="1" parent="1">
          <mxGeometry x="340" width="120" height="80" as="geometry" />
        </mxCell>
        <mxCell id="P8YTLVGRNUJ8Om8dEajW-4" style="edgeStyle=orthogonalEdgeStyle;rounded=0;orthogonalLoop=1;jettySize=auto;html=1;" edge="1" parent="1" source="P8YTLVGRNUJ8Om8dEajW-3" target="P8YTLVGRNUJ8Om8dEajW-5">
          <mxGeometry relative="1" as="geometry">
            <mxPoint x="400" y="240" as="targetPoint" />
          </mxGeometry>
        </mxCell>
        <mxCell id="P8YTLVGRNUJ8Om8dEajW-3" value="sayac==s&lt;br&gt;carpim==c" style="rounded=0;whiteSpace=wrap;html=1;" vertex="1" parent="1">
          <mxGeometry x="340" y="130" width="120" height="60" as="geometry" />
        </mxCell>
        <mxCell id="P8YTLVGRNUJ8Om8dEajW-6" style="edgeStyle=orthogonalEdgeStyle;rounded=0;orthogonalLoop=1;jettySize=auto;html=1;" edge="1" parent="1" source="P8YTLVGRNUJ8Om8dEajW-5" target="P8YTLVGRNUJ8Om8dEajW-7">
          <mxGeometry relative="1" as="geometry">
            <mxPoint x="400" y="360" as="targetPoint" />
          </mxGeometry>
        </mxCell>
        <mxCell id="P8YTLVGRNUJ8Om8dEajW-5" value="s==1&lt;br&gt;c==0" style="rounded=0;whiteSpace=wrap;html=1;" vertex="1" parent="1">
          <mxGeometry x="340" y="220" width="120" height="60" as="geometry" />
        </mxCell>
        <mxCell id="P8YTLVGRNUJ8Om8dEajW-8" value="true" style="edgeStyle=orthogonalEdgeStyle;rounded=0;orthogonalLoop=1;jettySize=auto;html=1;" edge="1" parent="1" source="P8YTLVGRNUJ8Om8dEajW-7" target="P8YTLVGRNUJ8Om8dEajW-9">
          <mxGeometry relative="1" as="geometry">
            <mxPoint x="520" y="360" as="targetPoint" />
          </mxGeometry>
        </mxCell>
        <mxCell id="P8YTLVGRNUJ8Om8dEajW-15" value="false" style="edgeStyle=orthogonalEdgeStyle;rounded=0;orthogonalLoop=1;jettySize=auto;html=1;" edge="1" parent="1" source="P8YTLVGRNUJ8Om8dEajW-7" target="P8YTLVGRNUJ8Om8dEajW-16">
          <mxGeometry relative="1" as="geometry">
            <mxPoint x="400" y="640" as="targetPoint" />
          </mxGeometry>
        </mxCell>
        <mxCell id="P8YTLVGRNUJ8Om8dEajW-7" value="sayac&amp;lt;11" style="rhombus;whiteSpace=wrap;html=1;" vertex="1" parent="1">
          <mxGeometry x="360" y="320" width="80" height="80" as="geometry" />
        </mxCell>
        <mxCell id="P8YTLVGRNUJ8Om8dEajW-10" style="edgeStyle=orthogonalEdgeStyle;rounded=0;orthogonalLoop=1;jettySize=auto;html=1;" edge="1" parent="1" source="P8YTLVGRNUJ8Om8dEajW-9" target="P8YTLVGRNUJ8Om8dEajW-11">
          <mxGeometry relative="1" as="geometry">
            <mxPoint x="590" y="480" as="targetPoint" />
          </mxGeometry>
        </mxCell>
        <mxCell id="P8YTLVGRNUJ8Om8dEajW-9" value="c==s*6" style="rounded=0;whiteSpace=wrap;html=1;" vertex="1" parent="1">
          <mxGeometry x="530" y="330" width="120" height="60" as="geometry" />
        </mxCell>
        <mxCell id="P8YTLVGRNUJ8Om8dEajW-12" style="edgeStyle=orthogonalEdgeStyle;rounded=0;orthogonalLoop=1;jettySize=auto;html=1;" edge="1" parent="1" source="P8YTLVGRNUJ8Om8dEajW-11" target="P8YTLVGRNUJ8Om8dEajW-13">
          <mxGeometry relative="1" as="geometry">
            <mxPoint x="590" y="570" as="targetPoint" />
          </mxGeometry>
        </mxCell>
        <mxCell id="P8YTLVGRNUJ8Om8dEajW-11" value="c" style="shape=document;whiteSpace=wrap;html=1;boundedLbl=1;" vertex="1" parent="1">
          <mxGeometry x="530" y="440" width="120" height="80" as="geometry" />
        </mxCell>
        <mxCell id="P8YTLVGRNUJ8Om8dEajW-13" value="s++" style="rounded=0;whiteSpace=wrap;html=1;" vertex="1" parent="1">
          <mxGeometry x="530" y="540" width="120" height="60" as="geometry" />
        </mxCell>
        <mxCell id="P8YTLVGRNUJ8Om8dEajW-14" style="edgeStyle=orthogonalEdgeStyle;rounded=0;orthogonalLoop=1;jettySize=auto;html=1;entryX=0.98;entryY=0.608;entryDx=0;entryDy=0;entryPerimeter=0;" edge="1" parent="1" source="P8YTLVGRNUJ8Om8dEajW-13" target="P8YTLVGRNUJ8Om8dEajW-7">
          <mxGeometry relative="1" as="geometry" />
        </mxCell>
        <mxCell id="P8YTLVGRNUJ8Om8dEajW-16" value="finish" style="ellipse;whiteSpace=wrap;html=1;" vertex="1" parent="1">
          <mxGeometry x="340" y="600" width="120" height="80" as="geometry" />
        </mxCell>
      </root>
    </mxGraphModel>
  </diagram>
</mxfile>
